<?xml version="1.0" encoding="UTF-8" standalone="no"?>
<svg
   version="1.1"
   viewBox="0 0 144 144"
   id="svg8"
   sodipodi:docname="inkscape-path-icon.svg"
   inkscape:version="1.1.2 (0a00cf5339, 2022-02-04)"
   xmlns:inkscape="http://www.inkscape.org/namespaces/inkscape"
   xmlns:sodipodi="http://sodipodi.sourceforge.net/DTD/sodipodi-0.dtd"
   xmlns="http://www.w3.org/2000/svg"
   xmlns:svg="http://www.w3.org/2000/svg">
  <defs
     id="defs12" />
  <sodipodi:namedview
     id="namedview10"
     pagecolor="#ffffff"
     bordercolor="#666666"
     borderopacity="1.0"
     inkscape:pageshadow="2"
     inkscape:pageopacity="0.0"
     inkscape:pagecheckerboard="0"
     showgrid="false"
     inkscape:zoom="3.8399827"
     inkscape:cx="89.844156"
     inkscape:cy="70.963862"
     inkscape:window-width="1920"
     inkscape:window-height="962"
     inkscape:window-x="0"
     inkscape:window-y="0"
     inkscape:window-maximized="1"
     inkscape:current-layer="svg8" />
  <style
     id="style2">
        @media (prefers-color-scheme: dark) {
            #b {
                fill: white;
            }
        }
    </style>
  <path
     style="fill:#a82a30;stroke-width:0.288;fill-opacity:1"
     d="M 65.088,140.66994 C 60.29788,140.1611 57.264431,139.63299 53.856,138.71451 41.979439,135.51407 31.689109,129.59039 23.019099,120.96307 18.975208,116.93909 17.015745,114.56594 14.027905,110.07362 9.1157789,102.68806 5.8363808,94.721288 4.0369562,85.802201 3.1750125,81.529862 3.168,81.418476 3.168,72 3.168,62.581524 3.17501,62.470138 4.0369562,58.197799 5.3892259,51.495094 7.3267678,45.984119 10.408644,40.074728 17.326901,26.809207 28.230348,16.258929 41.76913,9.7300279 52.081854,4.7568508 64.94286,2.2818816 75.982985,3.1459211 83.156282,3.707329 86.746389,4.4007598 93.416308,6.513177 c 8.053112,2.5504848 15.846732,6.929265 23.012542,12.929406 4.58866,3.842214 7.53092,7.014033 11.21816,12.093417 10.93153,15.058794 15.20744,33.708505 12.01523,52.405246 -3.37279,19.754394 -15.44677,37.267434 -32.67024,47.387454 -3.1757,1.86595 -8.236748,4.36695 -9.936,4.91004 -0.396,0.12656 -1.4328,0.5002 -2.304,0.83032 -3.226965,1.22275 -8.783726,2.60019 -12.816,3.17691 -6.375401,0.91184 -11.129198,1.03147 -16.848,0.42397 z m 7.363106,-23.18235 c 2.635623,-0.4695 3.982625,-1.08011 5.262477,-2.38554 2.919931,-2.9783 2.654254,-7.42358 -0.642151,-10.74437 -1.655139,-1.66739 -2.516964,-1.98987 -6.079432,-2.27485 -7.166131,-0.57326 -12.396214,-3.230658 -16.86746,-8.570336 -1.925528,-2.299513 -3.564755,-5.210965 -3.309068,-5.877274 0.146309,-0.381274 3.240527,-0.424491 26.011296,-0.363294 28.450102,0.07646 27.581102,0.125208 30.042832,-1.685172 2.25073,-1.655202 3.7224,-4.357909 3.7224,-6.836135 0,-0.682528 -0.18456,-2.124236 -0.41014,-3.20379 -0.22557,-1.079556 -0.50132,-2.900436 -0.61277,-4.046397 -0.27318,-2.808797 0.0775,-3.603355 1.99173,-4.513334 1.26315,-0.600463 2.06804,-0.730054 5.51118,-0.887322 4.80956,-0.219684 5.72173,-0.452437 6.18839,-1.579058 0.50444,-1.217823 0.19758,-1.790874 -2.09975,-3.921198 C 117.52525,57.228417 113.1548,54.071107 98.064,43.914012 93.1536,40.608991 88.399017,37.379085 87.498262,36.736442 86.065834,35.714477 82.220682,32.979286 79.782569,31.248 79.336428,30.9312 77.95364,29.944051 76.709704,29.054336 73.771572,26.95286 72.776773,26.462667 71.411936,26.443831 c -1.508821,-0.02082 -2.895777,0.74877 -7.331936,4.068335 -2.0592,1.540892 -4.131763,3.04962 -4.605699,3.352729 -0.74251,0.474877 -8.601068,5.886504 -13.765202,9.479105 -0.910757,0.6336 -3.529958,2.448 -5.820445,4.032 C 22.968293,59.077374 21.407,60.266454 20.324964,62.275671 c -0.684575,1.271181 -0.436159,2.369296 0.664775,2.938611 1.082144,0.559599 4.005232,1.020148 6.514261,1.026354 3.317484,0.0082 5.782334,1.493733 6.441877,3.882402 0.168489,0.610211 0.111335,2.228777 -0.164073,4.64667 -1.117357,9.809556 0.756792,17.750799 6.106308,25.873952 5.659906,8.59448 16.467912,15.27892 27.035321,16.72057 3.476842,0.47432 3.548482,0.47592 5.527673,0.12336 z M 50.757644,71.190132 c -0.2258,-0.588502 1.62021,-3.872571 3.570883,-6.352634 2.767571,-3.518661 7.253632,-6.518016 11.499829,-7.688725 2.296016,-0.63303 7.436439,-0.86334 9.701646,-0.434673 7.965944,1.507485 13.729979,5.824155 17.104792,12.809731 0.479232,0.99197 0.696286,1.743206 0.521231,1.803991 -0.164987,0.05729 -9.739498,0.134764 -21.276688,0.17217 -17.0928,0.05542 -21.003555,-0.002 -21.121693,-0.30986 z M 35.421898,46.540097 c 2.084042,-1.046756 7.45242,-4.721768 8.967122,-6.138596 3.232393,-3.023525 3.399122,-7.690758 0.401987,-11.252652 -2.681954,-3.187322 -8.935946,-3.163124 -11.894031,0.04602 C 31.109613,31.133926 30.96,31.870895 30.96,38.736 c 0,5.216849 0.06926,6.174662 0.503994,6.969686 0.922824,1.687626 1.8641,1.886069 3.957904,0.834411 z"
     id="path9086" />
</svg>
